<?xml version="1.0" encoding="UTF-8"?>
<!-- Generator: Adobe Illustrator 16.0.0, SVG Export Plug-In . SVG Version: 6.00 Build 0)  -->
<!DOCTYPE svg PUBLIC "-//W3C//DTD SVG 1.1//EN" "http://www.w3.org/Graphics/SVG/1.1/DTD/svg11.dtd">
<svg version="1.1" id="Camada_1" xmlns="http://www.w3.org/2000/svg" x="0px" y="0px" width="1920px" height="592px"
     viewBox="0 0 2862 792" enable-background="new 0 0 2862 792" xml:space="preserve">
<g>
	<g>
		<path fill-rule="evenodd" clip-rule="evenodd" fill="#F5EEF6" d="M2868.655,310c3.086-0.612,1.962,1.731,1.966,3.001    c0.055,14.17,0.035,28.339,0.035,42.51c0,19.504,0,39.009,0,58.513c-960.552,0-1921.104,0-2881.656,0c0-25.672,0-51.344,0-77.017    c0.817,0.122,1.646,0.189,2.447,0.375c17.674,4.111,35.257,8.672,53.034,12.273c45.89,9.297,92.212,15.833,138.908,19.215    c34.204,2.478,68.462,4.66,102.734,5.628c45.479,1.284,90.98,0.441,136.399-2.69c23.253-1.605,46.525-3.104,69.719-5.369    c32.468-3.171,64.886-6.894,97.298-10.603c37.543-4.297,75.056-8.843,112.584-13.268c38.688-4.561,77.335-9.498,116.076-13.545    c37.751-3.944,75.564-7.439,113.416-10.263c33.875-2.528,67.817-4.667,101.767-5.572c67.335-1.797,134.658-0.842,201.688,6.668    c31.76,3.558,63.481,7.693,95.056,12.616c41.95,6.541,83.655,14.655,125.617,21.109c69.979,10.765,140.337,18.648,210.931,23.98    c50.161,3.789,100.404,6.658,150.654,9.034c37.448,1.772,74.959,2.534,112.451,2.988c100.692,1.219,201.33-0.816,301.88-6.438    c40.09-2.241,80.2-4.379,120.223-7.545c50.313-3.981,100.595-8.504,150.802-13.662c47.057-4.834,94.105-10.012,140.961-16.462    c61.382-8.45,122.587-18.199,183.832-27.622C2841.28,315.732,2854.934,312.645,2868.655,310z"/>
	</g>
	<g>
		<path fill-rule="evenodd" clip-rule="evenodd" fill="#FAFAFA" d="M2868.655,327c3.086-0.612,1.962,1.731,1.966,3.001    c0.055,14.17,0.035,28.339,0.035,42.51c0,19.504,0,39.009,0,58.513c-960.552,0-1921.104,0-2881.656,0c0-25.672,0-51.344,0-77.017    c0.817,0.122,1.646,0.189,2.447,0.375c17.674,4.111,35.257,8.672,53.034,12.273c45.89,9.297,92.212,15.833,138.908,19.215    c34.204,2.478,68.462,4.66,102.734,5.628c45.479,1.284,90.98,0.441,136.399-2.69c23.253-1.605,46.525-3.104,69.719-5.369    c32.468-3.171,64.886-6.894,97.298-10.603c37.543-4.297,75.056-8.843,112.584-13.268c38.688-4.561,77.335-9.498,116.076-13.545    c37.751-3.944,75.564-7.439,113.416-10.263c33.875-2.528,67.817-4.667,101.767-5.572c67.335-1.797,134.658-0.842,201.688,6.668    c31.76,3.558,63.481,7.693,95.056,12.616c41.95,6.541,83.655,14.655,125.617,21.109c69.979,10.765,140.337,18.648,210.931,23.98    c50.161,3.789,100.404,6.658,150.654,9.034c37.448,1.772,74.959,2.534,112.451,2.988c100.692,1.219,201.33-0.816,301.88-6.438    c40.09-2.241,80.2-4.379,120.223-7.545c50.313-3.981,100.595-8.504,150.802-13.662c47.057-4.834,94.105-10.012,140.961-16.462    c61.382-8.45,122.587-18.199,183.832-27.622C2841.28,332.732,2854.934,329.645,2868.655,327z"/>
	</g>
</g>
</svg>
